<svg xmlns="http://www.w3.org/2000/svg" xmlns:xlink="http://www.w3.org/1999/xlink" version="1.1" x="0px" y="0px" viewBox="0 0 512 640" style="enable-background:new 0 0 512 512;" xml:space="preserve"><g><g><g><g><path d="M276.064,486.533h-37.457c-1.615,0-2.94-1.279-2.998-2.894l-7.134-200c-0.059-1.655,1.235-3.046,2.891-3.104      c1.678-0.027,3.046,1.235,3.105,2.892l7.031,197.106h31.667l0.869-24.38c0.059-1.655,1.472-2.938,3.104-2.891      c1.656,0.059,2.951,1.449,2.892,3.104l-0.973,27.272C279.005,485.254,277.68,486.533,276.064,486.533z"/></g><g><path d="M278.66,413.806c-0.036,0-0.072-0.001-0.108-0.002c-1.656-0.059-2.951-1.449-2.892-3.104l4.539-127.272      c0.06-1.656,1.464-2.919,3.104-2.892c1.656,0.059,2.951,1.449,2.892,3.104l-4.539,127.272      C281.599,412.532,280.268,413.806,278.66,413.806z"/></g><g><path d="M306.027,486.533h-97.383c-1.534,0-2.821-1.157-2.983-2.683l-21.308-200c-0.176-1.647,1.018-3.125,2.665-3.301      c1.644-0.171,3.125,1.018,3.301,2.666l21.022,197.317h91.952l18.298-197.277c0.153-1.65,1.611-2.859,3.265-2.71      c1.649,0.153,2.863,1.614,2.71,3.265l-18.551,200C308.871,485.354,307.577,486.533,306.027,486.533z"/></g><g><path d="M177.762,486.533c-1.46,0-2.74-1.067-2.963-2.556l-20.43-136.363c-0.246-1.639,0.884-3.166,2.522-3.411      c1.633-0.245,3.166,0.884,3.411,2.522l20.43,136.363c0.246,1.639-0.884,3.166-2.522,3.411      C178.06,486.522,177.91,486.533,177.762,486.533z"/></g><g><path d="M356.426,350.17c-0.148,0-0.298-0.011-0.448-0.033c-1.639-0.245-2.768-1.772-2.522-3.411l9.534-63.637      c0.246-1.64,1.786-2.765,3.411-2.522c1.639,0.245,2.768,1.772,2.522,3.411l-9.534,63.637      C359.166,349.103,357.886,350.17,356.426,350.17z"/></g><g><path d="M335.996,486.533c-0.148,0-0.298-0.011-0.448-0.033c-1.639-0.245-2.768-1.772-2.522-3.411l14.982-100      c0.245-1.64,1.784-2.764,3.411-2.522c1.639,0.245,2.768,1.772,2.522,3.411l-14.982,100      C338.736,485.466,337.456,486.533,335.996,486.533z"/></g><g><path d="M338.767,486.533H175.904c-17.205,0-31.809-11.624-34.725-27.639L111.844,319.52      c-2.016-9.577,0.365-19.429,6.532-27.028c6.167-7.6,15.316-11.958,25.104-11.958h227.713c9.787,0,18.937,4.358,25.104,11.959      c6.167,7.6,8.547,17.45,6.531,27.027l-29.353,139.456C370.576,474.909,355.973,486.533,338.767,486.533z M143.479,286.533      c-7.971,0-15.422,3.55-20.445,9.739c-5.022,6.188-6.96,14.212-5.319,22.011l29.352,139.456      c2.412,13.242,14.533,22.794,28.837,22.794h162.862c14.305,0,26.426-9.552,28.821-22.713l29.368-139.537      c1.642-7.799-0.297-15.821-5.319-22.011c-5.021-6.189-12.474-9.739-20.444-9.739H143.479z"/></g><g><g><path d="M370.695,286.533H160.459c-0.431,0-0.857-0.093-1.249-0.272c-22.587-10.344-37.355-26.492-42.708-46.699       c-5.811-21.938,0.071-46.648,16.563-69.581c18.534-25.77,36.474-30.692,57.246-36.393c15.305-4.2,32.653-8.96,54.312-22.772       c16.084-10.243,24.831-22.335,25.299-34.972c0.533-14.401-9.795-29.93-29.868-44.91c-1.023-0.764-1.451-2.091-1.066-3.308       c0.385-1.217,1.498-2.058,2.773-2.095c1.484-0.043,2.957-0.065,4.435-0.065c39.659,0,78.29,15.275,108.777,43.012       c30.656,27.891,49.191,64.929,52.191,104.293c3.307,43.708-7.863,80.56-34.149,112.662       C372.446,286.13,371.595,286.533,370.695,286.533z M161.118,280.533h208.148c24.623-30.594,35.063-65.71,31.917-107.307       c-5.85-76.763-73.01-139.472-150.718-141.698c17.449,14.711,26.004,29.667,25.453,44.538       c-0.544,14.695-10.251,28.461-28.07,39.809c-22.422,14.299-40.234,19.187-55.949,23.499       c-20.486,5.622-36.667,10.062-53.962,34.109c-15.425,21.449-20.978,44.371-15.635,64.542       C127.134,256.266,140.551,270.954,161.118,280.533z"/></g><g><path d="M206.011,286.533c-0.704,0-1.385-0.247-1.925-0.699c-17.042-14.263-26.313-30.699-27.557-48.853       c-2.784-40.642,34.278-81.461,61.339-111.267c4.656-5.128,9.054-9.972,12.789-14.324c3.029-3.514,5.62-7.323,7.707-11.327       c0.765-1.469,2.575-2.039,4.047-1.274c1.469,0.766,2.039,2.578,1.273,4.047c-2.3,4.414-5.152,8.608-8.479,12.467       c-3.786,4.41-8.211,9.284-12.896,14.444c-26.335,29.006-62.404,68.732-59.794,106.823c1.107,16.164,9.374,30.944,24.575,43.945       c25.119-0.367,50.81-0.239,75.667-0.112c11.922,0.06,24.229,0.122,36.323,0.128c13.352-30.664,19.002-65.824,17.27-107.407       c-2.986-71.894-36.308-133.821-75.859-140.983c-1.631-0.295-2.713-1.856-2.418-3.487c0.296-1.63,1.858-2.711,3.486-2.417       c20.647,3.739,40.274,20.781,55.265,47.986c14.941,27.118,24.005,62.153,25.521,98.652       c1.807,43.337-4.269,79.935-18.571,111.883c-0.483,1.08-1.556,1.774-2.738,1.774c-12.735,0-25.735-0.065-38.308-0.13       c-25.198-0.127-51.255-0.26-76.669,0.13C206.042,286.533,206.026,286.533,206.011,286.533z"/></g><g><path d="M279.462,286.534c-0.41,0-0.827-0.085-1.226-0.264c-1.512-0.678-2.188-2.453-1.51-3.965       c13.915-31.024,19.82-66.738,18.052-109.181c-0.069-1.656,1.217-3.053,2.872-3.123c1.681-0.072,3.054,1.217,3.122,2.873       c1.809,43.395-4.267,79.993-18.571,111.886C281.702,285.874,280.607,286.534,279.462,286.534z"/></g></g><g><path d="M407.336,63.532L407.336,63.532c-5.523,0.001-10-4.476-10-9.999l0,0c-0.001-5.522,4.477-10,9.999-10l0,0      c5.522-0.001,10,4.476,9.999,10l0,0C417.335,59.055,412.857,63.532,407.336,63.532z"/><path d="M297.336,153.532L297.336,153.532c-5.523,0.001-10-4.476-10-9.999l0,0c-0.001-5.522,4.477-10,9.999-10l0,0      c5.522-0.001,10,4.476,9.999,10l0,0C307.335,149.055,302.857,153.532,297.336,153.532z"/><path d="M457.336,363.533L457.336,363.533c-5.523,0.001-10-4.477-10-9.999l0,0c-0.001-5.522,4.477-9.999,9.999-10l0,0      c5.522-0.001,10,4.477,9.999,9.999l0,0C467.335,359.057,462.857,363.533,457.336,363.533z"/><path d="M427.336,443.532L427.336,443.532c-5.523,0.001-10-4.477-10-9.998l0,0c-0.001-5.522,4.477-10,9.999-10.001l0,0      c5.522-0.001,10,4.477,9.999,10l0,0C437.335,439.056,432.857,443.532,427.336,443.532z"/><path d="M457.336,193.532L457.336,193.532c-5.523,0.001-10-4.476-10-9.999l0,0c-0.001-5.522,4.477-10,9.999-10l0,0      c5.522-0.001,10,4.477,9.999,10l0,0C467.335,189.055,462.857,193.532,457.336,193.532z"/><path d="M207.335,83.533L207.335,83.533c-5.522,0.001-10-4.476-10-9.999l0,0c-0.001-5.522,4.476-10,9.999-10l0,0      c5.522-0.001,10,4.476,9.999,10l0,0C217.335,79.056,212.858,83.533,207.335,83.533z"/><path d="M87.335,173.532L87.335,173.532c-5.522,0.001-10-4.476-10-9.999l0,0c-0.001-5.522,4.476-10,9.999-10l0,0      c5.522-0.001,10,4.476,10,10l0,0C97.335,169.055,92.858,173.532,87.335,173.532z"/><path d="M57.335,73.533L57.335,73.533c-5.522,0.001-10-4.476-10-9.999l0,0c-0.001-5.522,4.476-10,9.999-10l0,0      c5.522-0.001,10,4.476,10,10l0,0C67.335,69.056,62.858,73.533,57.335,73.533z"/><g><path d="M464.836,126.533c-0.768,0-1.535-0.293-2.121-0.879l-17.5-17.5c-1.172-1.171-1.172-3.071,0-4.242l15.379-15.379       l-15.379-15.379c-1.172-1.171-1.172-3.071,0-4.242l17.5-17.5c1.172-1.172,3.07-1.172,4.242,0c1.172,1.171,1.172,3.071,0,4.242       l-15.379,15.379l15.379,15.379c1.172,1.171,1.172,3.071,0,4.242l-15.379,15.379l15.379,15.379c1.172,1.171,1.172,3.071,0,4.242       C466.371,126.24,465.604,126.533,464.836,126.533z"/></g><g><path d="M77.338,309.867c-0.241,0-0.486-0.029-0.73-0.091l-26.667-6.666c-1.048-0.262-1.875-1.067-2.164-2.109       s0.005-2.158,0.77-2.922l16.036-16.036l-27.836-5.568c-1.625-0.324-2.678-1.905-2.354-3.53c0.325-1.625,1.909-2.679,3.53-2.353       l33.333,6.667c1.085,0.217,1.962,1.013,2.283,2.072c0.321,1.059,0.033,2.208-0.75,2.99l-16.253,16.254l21.526,5.381       c1.607,0.401,2.584,2.03,2.183,3.638C79.906,308.957,78.682,309.867,77.338,309.867z"/></g><g><path d="M127.336,86.533c-12.682,0-23-10.318-23-23s10.318-23,23-23s23,10.318,23,23S140.018,86.533,127.336,86.533z        M127.336,46.533c-9.374,0-17,7.626-17,17s7.626,17,17,17s17-7.626,17-17S136.71,46.533,127.336,46.533z"/></g><g><g><g><path d="M456.37,304.658c-2.563,0-5.056-0.538-7.407-1.6c-11.571-5.221-15.358-17.222-19.744-31.118         c-1.41-4.471-2.869-9.094-4.688-13.903c-0.587-1.55,0.194-3.281,1.744-3.868c4.804-1.816,9.228-3.778,13.507-5.675         c9.636-4.271,17.958-7.961,26.19-7.961c3.633,0,6.975,0.711,10.218,2.174c9.07,4.093,13.121,14.802,9.029,23.873         c-3.001,6.654-7.666,9.315-13.702,10.327c3.235,5.193,4.328,10.452,1.326,17.105         C469.926,300.479,463.46,304.658,456.37,304.658z M431.168,258.704c1.412,3.95,2.608,7.741,3.772,11.431         c4.115,13.039,7.366,23.338,16.489,27.455c1.571,0.709,3.233,1.068,4.94,1.068c4.735,0,9.055-2.792,11.004-7.112         c2.35-5.211,1.453-8.911-3.691-15.229c-0.718-0.882-0.876-2.093-0.408-3.128c0.467-1.036,1.479-1.719,2.615-1.765         c8.142-0.324,11.51-2.101,13.86-7.311c2.731-6.056,0.027-13.205-6.027-15.937c-2.452-1.105-4.987-1.643-7.751-1.643         c-6.962,0-14.746,3.451-23.759,7.446C438.684,255.544,435.057,257.152,431.168,258.704z"/></g></g></g><g><g><g><path d="M70.669,444.908c-2.564,0-5.057-0.538-7.409-1.6c-6.652-3-9.314-7.664-10.326-13.698         c-2.841,1.766-6.041,3.081-9.619,3.081c-2.416,0-4.865-0.575-7.488-1.759c-4.399-1.984-7.763-5.561-9.471-10.071         c-1.708-4.51-1.557-9.414,0.425-13.808c5.22-11.571,17.221-15.358,31.116-19.744c4.471-1.411,9.095-2.87,13.906-4.689         c0.745-0.282,1.571-0.257,2.295,0.071c0.726,0.327,1.291,0.929,1.573,1.673c1.817,4.805,3.779,9.23,5.676,13.51         c5.906,13.323,11.007,24.83,5.786,36.405C84.219,440.736,77.757,444.908,70.669,444.908z M55.418,421.099         c0.418,0,0.838,0.087,1.233,0.266c1.036,0.467,1.719,1.479,1.764,2.615c0.325,8.142,2.102,11.51,7.312,13.86         c1.572,0.709,3.235,1.068,4.942,1.068c4.734,0,9.049-2.785,10.994-7.096c4.118-9.13-0.259-19.005-5.802-31.507         c-1.565-3.53-3.173-7.158-4.726-11.048c-3.952,1.413-7.743,2.609-11.433,3.774c-13.038,4.114-23.336,7.364-27.453,16.488         c-1.323,2.933-1.423,6.205-0.283,9.216c1.141,3.013,3.388,5.401,6.327,6.728c1.832,0.826,3.474,1.228,5.021,1.228         c2.96,0,5.918-1.425,10.209-4.919C54.068,421.328,54.74,421.099,55.418,421.099z"/></g></g></g></g></g></g></g><text x="0" y="527" fill="#000000" font-size="5px" font-weight="bold" font-family="'Helvetica Neue', Helvetica, Arial-Unicode, Arial, Sans-serif">Created by Flatart</text><text x="0" y="532" fill="#000000" font-size="5px" font-weight="bold" font-family="'Helvetica Neue', Helvetica, Arial-Unicode, Arial, Sans-serif">from the Noun Project</text></svg>