<svg xmlns="http://www.w3.org/2000/svg" xmlns:xlink="http://www.w3.org/1999/xlink" version="1.1" x="0px" y="0px" viewBox="0 0 100 125" style="enable-background:new 0 0 100 100;" xml:space="preserve"><path d="M37.395,39.349C41.375,38.46,45.607,38,50,38s8.625,0.46,12.605,1.349c-4.266,1.629-8.523,3.552-12.605,5.779  C45.918,42.901,41.661,40.979,37.395,39.349z"/><path d="M92,72.941C92,85.221,72.615,92,50,92S8,85.221,8,72.941c0-13.767,7.219-23.87,18.215-29.576  c2.223,1.278,5.343,1.004,16.26,6.324c-6.663,4.446-14.46,10.853-18.983,18.801c-1.025,1.8-0.398,4.09,1.403,5.114  c1.811,1.028,4.097,0.386,5.112-1.405C33.558,65.966,40.754,59.376,50,53.783c9.246,5.594,16.442,12.183,19.992,18.415  c1.015,1.79,3.301,2.433,5.112,1.405c1.802-1.024,2.429-3.313,1.403-5.114c-4.523-7.948-12.32-14.355-18.983-18.801  c10.667-5.198,14.236-5.161,16.26-6.324C84.781,49.071,92,59.174,92,72.941z"/><path d="M47.583,27.661c-3.832-5.769-1.436-9.293-0.006-11.399c1.119-1.645,1.263-1.856,0.07-3.507  c-0.967-1.345-0.665-3.22,0.68-4.188s3.217-0.665,4.189,0.678c3.647,5.06,1.38,8.396,0.023,10.39  c-1.166,1.717-1.562,2.295,0.041,4.704c0.917,1.38,0.542,3.242-0.838,4.16C50.366,29.413,48.501,29.042,47.583,27.661z"/><path d="M26.583,30.661c-3.832-5.769-1.436-9.293-0.006-11.399c1.119-1.645,1.263-1.856,0.07-3.507  c-0.967-1.345-0.665-3.22,0.68-4.188c1.348-0.967,3.22-0.664,4.189,0.678c3.647,5.06,1.38,8.396,0.023,10.39  c-1.166,1.717-1.562,2.295,0.041,4.704c0.917,1.38,0.542,3.242-0.838,4.16C29.366,32.413,27.501,32.042,26.583,30.661z"/><path d="M68.583,30.661c-3.832-5.769-1.436-9.293-0.006-11.399c1.119-1.645,1.263-1.856,0.07-3.507  c-0.967-1.345-0.665-3.22,0.68-4.188c1.348-0.967,3.22-0.664,4.189,0.678c3.647,5.06,1.38,8.396,0.023,10.39  c-1.166,1.717-1.562,2.295,0.041,4.704c0.917,1.38,0.542,3.242-0.838,4.16C71.366,32.413,69.501,32.042,68.583,30.661z"/><text x="0" y="115" fill="#000000" font-size="5px" font-weight="bold" font-family="'Helvetica Neue', Helvetica, Arial-Unicode, Arial, Sans-serif">Created by Ayub Irawan</text><text x="0" y="120" fill="#000000" font-size="5px" font-weight="bold" font-family="'Helvetica Neue', Helvetica, Arial-Unicode, Arial, Sans-serif">from the Noun Project</text></svg>