<svg aria-hidden="true" style="position: absolute; width: 0; height: 0; overflow: hidden;" version="1.1" xmlns="http://www.w3.org/2000/svg" xmlns:xlink="http://www.w3.org/1999/xlink">
<defs>
<symbol id="icon-cross" viewBox="0 0 26 32">
<path d="M9.573 10.073c1.019-0.228 2.102-0.345 3.227-0.345s2.208 0.118 3.227 0.345c-1.092 0.417-2.182 0.909-3.227 1.479-1.045-0.57-2.135-1.062-3.227-1.479z"></path>
<path d="M23.552 18.673c0 3.144-4.963 4.879-10.752 4.879s-10.752-1.735-10.752-4.879c0-3.524 1.848-6.111 4.663-7.571 0.569 0.327 1.368 0.257 4.163 1.619-1.706 1.138-3.702 2.778-4.86 4.813-0.262 0.461-0.102 1.047 0.359 1.309 0.464 0.263 1.049 0.099 1.309-0.36 0.909-1.596 2.751-3.283 5.118-4.715 2.367 1.432 4.209 3.119 5.118 4.714 0.26 0.458 0.845 0.623 1.309 0.36 0.461-0.262 0.622-0.848 0.359-1.309-1.158-2.035-3.154-3.675-4.86-4.813 2.731-1.331 3.644-1.321 4.163-1.619 2.815 1.461 4.663 4.047 4.663 7.572z"></path>
<path d="M12.181 7.081c-0.981-1.477-0.368-2.379-0.002-2.918 0.286-0.421 0.323-0.475 0.018-0.898-0.248-0.344-0.17-0.824 0.174-1.072s0.824-0.17 1.072 0.174c0.934 1.295 0.353 2.149 0.006 2.66-0.299 0.44-0.4 0.588 0.011 1.204 0.235 0.353 0.139 0.83-0.215 1.065-0.352 0.234-0.83 0.139-1.065-0.215z"></path>
<path d="M6.805 7.849c-0.981-1.477-0.368-2.379-0.002-2.918 0.286-0.421 0.323-0.475 0.018-0.898-0.248-0.344-0.17-0.824 0.174-1.072s0.824-0.17 1.072 0.174c0.934 1.295 0.353 2.149 0.006 2.66-0.298 0.44-0.4 0.588 0.011 1.204 0.235 0.353 0.139 0.83-0.215 1.065-0.352 0.234-0.83 0.139-1.065-0.215z"></path>
<path d="M17.557 7.849c-0.981-1.477-0.368-2.379-0.002-2.918 0.286-0.421 0.323-0.475 0.018-0.898-0.248-0.344-0.17-0.824 0.174-1.072s0.824-0.17 1.072 0.174c0.934 1.295 0.353 2.149 0.006 2.66-0.299 0.44-0.4 0.588 0.011 1.204 0.235 0.353 0.139 0.83-0.215 1.065-0.352 0.234-0.83 0.139-1.065-0.215z"></path>
</symbol>
<symbol id="icon-open-burger" viewBox="0 0 26 32">
<path d="M13.803 24.327h-1.873c-0.081 0-0.147-0.064-0.15-0.145l-0.357-10c-0.003-0.083 0.062-0.152 0.145-0.155 0.084-0.001 0.152 0.062 0.155 0.145l0.352 9.855h1.583l0.043-1.219c0.003-0.083 0.074-0.147 0.155-0.145 0.083 0.003 0.148 0.072 0.145 0.155l-0.049 1.364c-0.003 0.081-0.069 0.145-0.15 0.145z"></path>
<path d="M13.933 20.69c-0.002 0-0.004-0-0.005-0-0.083-0.003-0.148-0.072-0.145-0.155l0.227-6.364c0.003-0.083 0.073-0.146 0.155-0.145 0.083 0.003 0.148 0.072 0.145 0.155l-0.227 6.364c-0.003 0.081-0.069 0.145-0.15 0.145z"></path>
<path d="M15.301 24.327h-4.869c-0.077 0-0.141-0.058-0.149-0.134l-1.065-10c-0.009-0.082 0.051-0.156 0.133-0.165s0.156 0.051 0.165 0.133l1.051 9.866h4.598l0.915-9.864c0.008-0.082 0.081-0.143 0.163-0.136s0.143 0.081 0.136 0.163l-0.928 10c-0.007 0.077-0.072 0.136-0.149 0.136z"></path>
<path d="M8.888 24.327c-0.073 0-0.137-0.053-0.148-0.128l-1.021-6.818c-0.012-0.082 0.044-0.158 0.126-0.171s0.158 0.044 0.171 0.126l1.021 6.818c0.012 0.082-0.044 0.158-0.126 0.171-0.008 0.001-0.015 0.002-0.022 0.002z"></path>
<path d="M17.821 17.509c-0.007 0-0.015-0.001-0.022-0.002-0.082-0.012-0.138-0.089-0.126-0.171l0.477-3.182c0.012-0.082 0.089-0.138 0.171-0.126s0.138 0.089 0.126 0.171l-0.477 3.182c-0.011 0.074-0.075 0.128-0.148 0.128z"></path>
<path d="M16.8 24.327c-0.007 0-0.015-0.001-0.022-0.002-0.082-0.012-0.138-0.089-0.126-0.171l0.749-5c0.012-0.082 0.089-0.138 0.171-0.126s0.138 0.089 0.126 0.171l-0.749 5c-0.011 0.074-0.075 0.128-0.148 0.128z"></path>
<path d="M16.938 24.327h-8.143c-0.86 0-1.59-0.581-1.736-1.382l-1.467-6.969c-0.101-0.479 0.018-0.971 0.327-1.351s0.766-0.598 1.255-0.598h11.386c0.489 0 0.947 0.218 1.255 0.598s0.427 0.873 0.327 1.351l-1.468 6.973c-0.145 0.797-0.875 1.378-1.735 1.378zM7.174 14.327c-0.399 0-0.771 0.178-1.022 0.487s-0.348 0.711-0.266 1.101l1.468 6.973c0.121 0.662 0.727 1.14 1.442 1.14h8.143c0.715 0 1.321-0.478 1.441-1.136l1.468-6.977c0.082-0.39-0.015-0.791-0.266-1.101s-0.624-0.487-1.022-0.487h-11.386z"></path>
<path d="M18.535 14.327h-10.512c-0.022 0-0.043-0.005-0.062-0.014-1.129-0.517-1.868-1.325-2.135-2.335-0.291-1.097 0.004-2.332 0.828-3.479 0.927-1.288 1.824-1.535 2.862-1.82 0.765-0.21 1.633-0.448 2.716-1.139 0.804-0.512 1.242-1.117 1.265-1.749 0.027-0.72-0.49-1.496-1.493-2.245-0.051-0.038-0.073-0.105-0.053-0.165s0.075-0.103 0.139-0.105c0.074-0.002 0.148-0.003 0.222-0.003 1.983 0 3.915 0.764 5.439 2.151 1.533 1.395 2.46 3.246 2.61 5.215 0.165 2.185-0.393 4.028-1.707 5.633-0.028 0.035-0.071 0.055-0.116 0.055zM8.056 14.027h10.407c1.231-1.53 1.753-3.286 1.596-5.365-0.293-3.838-3.651-6.974-7.536-7.085 0.872 0.736 1.3 1.483 1.273 2.227-0.027 0.735-0.513 1.423-1.403 1.99-1.121 0.715-2.012 0.959-2.797 1.175-1.024 0.281-1.833 0.503-2.698 1.705-0.771 1.072-1.049 2.219-0.782 3.227 0.242 0.912 0.912 1.646 1.941 2.125z"></path>
<path d="M10.301 14.327c-0.035 0-0.069-0.012-0.096-0.035-0.852-0.713-1.316-1.535-1.378-2.443-0.139-2.032 1.714-4.073 3.067-5.563 0.233-0.256 0.453-0.499 0.639-0.716 0.151-0.176 0.281-0.366 0.385-0.566 0.038-0.073 0.129-0.102 0.202-0.064s0.102 0.129 0.064 0.202c-0.115 0.221-0.258 0.43-0.424 0.623-0.189 0.221-0.411 0.464-0.645 0.722-1.317 1.45-3.12 3.437-2.99 5.341 0.055 0.808 0.469 1.547 1.229 2.197 1.256-0.018 2.54-0.012 3.783-0.006 0.596 0.003 1.211 0.006 1.816 0.006 0.668-1.533 0.95-3.291 0.863-5.37-0.149-3.595-1.815-6.691-3.793-7.049-0.082-0.015-0.136-0.093-0.121-0.174s0.093-0.136 0.174-0.121c1.032 0.187 2.014 1.039 2.763 2.399 0.747 1.356 1.2 3.108 1.276 4.933 0.090 2.167-0.213 3.997-0.929 5.594-0.024 0.054-0.078 0.089-0.137 0.089-0.637 0-1.287-0.003-1.915-0.007-1.26-0.006-2.563-0.013-3.833 0.007-0.001 0-0.002 0-0.002 0z"></path>
<path d="M13.973 14.327c-0.021 0-0.041-0.004-0.061-0.013-0.076-0.034-0.109-0.123-0.075-0.198 0.696-1.551 0.991-3.337 0.903-5.459-0.003-0.083 0.061-0.153 0.144-0.156 0.084-0.004 0.153 0.061 0.156 0.144 0.090 2.17-0.213 4-0.929 5.594-0.025 0.056-0.080 0.089-0.137 0.089z"></path>
<path d="M20.367 3.177v0c-0.276 0-0.5-0.224-0.5-0.5v0c-0-0.276 0.224-0.5 0.5-0.5v0c0.276-0 0.5 0.224 0.5 0.5v0c0 0.276-0.224 0.5-0.5 0.5z"></path>
<path d="M14.867 7.677v0c-0.276 0-0.5-0.224-0.5-0.5v0c-0-0.276 0.224-0.5 0.5-0.5v0c0.276-0 0.5 0.224 0.5 0.5v0c0 0.276-0.224 0.5-0.5 0.5z"></path>
<path d="M22.867 18.177v0c-0.276 0-0.5-0.224-0.5-0.5v0c-0-0.276 0.224-0.5 0.5-0.5v0c0.276-0 0.5 0.224 0.5 0.5v0c0 0.276-0.224 0.5-0.5 0.5z"></path>
<path d="M21.367 22.177v0c-0.276 0-0.5-0.224-0.5-0.5v0c-0-0.276 0.224-0.5 0.5-0.5v0c0.276-0 0.5 0.224 0.5 0.5v0c0 0.276-0.224 0.5-0.5 0.5z"></path>
<path d="M22.867 9.677v0c-0.276 0-0.5-0.224-0.5-0.5v0c-0-0.276 0.224-0.5 0.5-0.5v0c0.276-0 0.5 0.224 0.5 0.5v0c0 0.276-0.224 0.5-0.5 0.5z"></path>
<path d="M10.367 4.177v0c-0.276 0-0.5-0.224-0.5-0.5v0c-0-0.276 0.224-0.5 0.5-0.5v0c0.276-0 0.5 0.224 0.5 0.5v0c0 0.276-0.224 0.5-0.5 0.5z"></path>
<path d="M4.367 8.677v0c-0.276 0-0.5-0.224-0.5-0.5v0c-0-0.276 0.224-0.5 0.5-0.5v0c0.276-0 0.5 0.224 0.5 0.5v0c0 0.276-0.224 0.5-0.5 0.5z"></path>
<path d="M2.867 3.677v0c-0.276 0-0.5-0.224-0.5-0.5v0c-0-0.276 0.224-0.5 0.5-0.5v0c0.276-0 0.5 0.224 0.5 0.5v0c0 0.276-0.224 0.5-0.5 0.5z"></path>
<path d="M23.242 6.327c-0.038 0-0.077-0.015-0.106-0.044l-0.875-0.875c-0.059-0.059-0.059-0.154 0-0.212l0.769-0.769-0.769-0.769c-0.059-0.059-0.059-0.154 0-0.212l0.875-0.875c0.059-0.059 0.154-0.059 0.212 0s0.059 0.154 0 0.212l-0.769 0.769 0.769 0.769c0.059 0.059 0.059 0.154 0 0.212l-0.769 0.769 0.769 0.769c0.059 0.059 0.059 0.154 0 0.212-0.029 0.029-0.068 0.044-0.106 0.044z"></path>
<path d="M3.867 15.493c-0.012 0-0.024-0.001-0.037-0.005l-1.333-0.333c-0.052-0.013-0.094-0.053-0.108-0.105s0-0.108 0.038-0.146l0.802-0.802-1.392-0.278c-0.081-0.016-0.134-0.095-0.118-0.177s0.095-0.134 0.177-0.118l1.667 0.333c0.054 0.011 0.098 0.051 0.114 0.104s0.002 0.11-0.038 0.149l-0.813 0.813 1.076 0.269c0.080 0.020 0.129 0.101 0.109 0.182-0.017 0.068-0.078 0.114-0.145 0.114z"></path>
<path d="M6.367 4.327c-0.634 0-1.15-0.516-1.15-1.15s0.516-1.15 1.15-1.15 1.15 0.516 1.15 1.15-0.516 1.15-1.15 1.15zM6.367 2.327c-0.469 0-0.85 0.381-0.85 0.85s0.381 0.85 0.85 0.85 0.85-0.381 0.85-0.85-0.381-0.85-0.85-0.85z"></path>
<path d="M22.819 15.233c-0.128 0-0.253-0.027-0.37-0.080-0.579-0.261-0.768-0.861-0.987-1.556-0.070-0.224-0.143-0.455-0.234-0.695-0.029-0.078 0.010-0.164 0.087-0.193 0.24-0.091 0.461-0.189 0.675-0.284 0.482-0.214 0.898-0.398 1.309-0.398 0.182 0 0.349 0.036 0.511 0.109 0.453 0.205 0.656 0.74 0.451 1.194-0.15 0.333-0.383 0.466-0.685 0.516 0.162 0.26 0.216 0.523 0.066 0.855-0.146 0.323-0.469 0.532-0.824 0.532zM21.558 12.935c0.071 0.197 0.13 0.387 0.189 0.572 0.206 0.652 0.368 1.167 0.824 1.373 0.079 0.035 0.162 0.053 0.247 0.053 0.237 0 0.453-0.14 0.55-0.356 0.117-0.261 0.073-0.446-0.185-0.761-0.036-0.044-0.044-0.105-0.020-0.156s0.074-0.086 0.131-0.088c0.407-0.016 0.576-0.105 0.693-0.366 0.137-0.303 0.001-0.66-0.301-0.797-0.123-0.055-0.249-0.082-0.388-0.082-0.348 0-0.737 0.173-1.188 0.372-0.176 0.078-0.358 0.159-0.552 0.236z"></path>
<path d="M3.533 22.245c-0.128 0-0.253-0.027-0.37-0.080-0.333-0.15-0.466-0.383-0.516-0.685-0.142 0.088-0.302 0.154-0.481 0.154-0.121 0-0.243-0.029-0.374-0.088-0.22-0.099-0.388-0.278-0.474-0.504s-0.078-0.471 0.021-0.69c0.261-0.579 0.861-0.768 1.556-0.987 0.224-0.071 0.455-0.143 0.695-0.234 0.037-0.014 0.079-0.013 0.115 0.004s0.065 0.046 0.079 0.084c0.091 0.24 0.189 0.462 0.284 0.675 0.295 0.666 0.55 1.241 0.289 1.82-0.146 0.323-0.469 0.531-0.823 0.531zM2.771 21.055c0.021 0 0.042 0.004 0.062 0.013 0.052 0.023 0.086 0.074 0.088 0.131 0.016 0.407 0.105 0.576 0.366 0.693 0.079 0.035 0.162 0.053 0.247 0.053 0.237 0 0.452-0.139 0.55-0.355 0.206-0.456-0.013-0.95-0.29-1.575-0.078-0.177-0.159-0.358-0.236-0.552-0.198 0.071-0.387 0.13-0.572 0.189-0.652 0.206-1.167 0.368-1.373 0.824-0.066 0.147-0.071 0.31-0.014 0.461s0.169 0.27 0.316 0.336c0.092 0.041 0.174 0.061 0.251 0.061 0.148 0 0.296-0.071 0.51-0.246 0.027-0.022 0.061-0.034 0.095-0.034z"></path>
</symbol>
</defs>
</svg>
