<svg aria-hidden="true" style="position: absolute; width: 0; height: 0; overflow: hidden;" version="1.1" xmlns="http://www.w3.org/2000/svg" xmlns:xlink="http://www.w3.org/1999/xlink"> <defs> <symbol id="icon-magic" viewBox="0 0 32 32"> <path stroke-linejoin="miter" stroke-linecap="square" stroke-miterlimit="4" stroke-width="1.242" d="M21.088 1.778c-1.297 10.116-0.915 13.095-9.969 14.222 8.902 1.381 9.030 4.498 9.969 14.222 1.239-9.781 0.998-12.711 9.971-14.222-9.043-1.109-8.74-4.117-9.971-14.222zM6.321 2.039c-0.698 5.458-0.493 7.067-5.38 7.675 4.804 0.747 4.873 2.427 5.38 7.675 0.668-5.28 0.538-6.86 5.382-7.675-4.881-0.599-4.717-2.222-5.382-7.675zM11.219 17.362c-0.489 3.828-0.346 4.955-3.772 5.381 3.369 0.523 3.416 1.701 3.772 5.381 0.471-3.701 0.376-4.811 3.772-5.381-3.42-0.42-3.305-1.557-3.772-5.381z"></path> </symbol> <symbol id="icon-cross" viewBox="0 0 26 32"> <path d="M9.195 12.956c1.137-0.254 2.347-0.386 3.602-0.386s2.465 0.132 3.602 0.386c-1.219 0.465-2.435 1.015-3.602 1.651-1.167-0.636-2.383-1.186-3.602-1.651z"></path> <path d="M24.799 22.556c0 3.509-5.539 5.446-12.002 5.446s-12.002-1.937-12.002-5.446c0-3.934 2.063-6.821 5.205-8.452 0.635 0.365 1.527 0.287 4.646 1.807-1.904 1.271-4.132 3.101-5.425 5.373-0.293 0.514-0.114 1.169 0.401 1.461 0.518 0.294 1.171 0.11 1.461-0.402 1.015-1.781 3.071-3.664 5.713-5.263 2.642 1.599 4.699 3.482 5.713 5.262 0.29 0.512 0.943 0.695 1.461 0.402 0.515-0.293 0.694-0.947 0.401-1.461-1.292-2.271-3.521-4.102-5.425-5.373 3.048-1.485 4.068-1.475 4.646-1.807 3.143 1.631 5.205 4.518 5.205 8.452z"></path> <path d="M12.106 9.616c-1.095-1.649-0.41-2.656-0.002-3.257 0.32-0.47 0.361-0.53 0.020-1.002-0.276-0.384-0.19-0.92 0.194-1.197s0.919-0.19 1.197 0.194c1.042 1.446 0.394 2.399 0.007 2.969-0.333 0.491-0.446 0.656 0.012 1.344 0.262 0.394 0.155 0.926-0.24 1.189-0.393 0.261-0.926 0.155-1.188-0.24z"></path> <path d="M6.105 10.474c-1.095-1.649-0.41-2.656-0.002-3.257 0.32-0.47 0.361-0.53 0.020-1.002-0.276-0.384-0.19-0.92 0.194-1.197s0.92-0.19 1.197 0.194c1.042 1.446 0.394 2.399 0.006 2.969-0.333 0.491-0.446 0.656 0.012 1.344 0.262 0.394 0.155 0.926-0.24 1.189-0.393 0.261-0.926 0.155-1.188-0.24z"></path> <path d="M18.107 10.474c-1.095-1.649-0.41-2.656-0.002-3.257 0.32-0.47 0.361-0.53 0.020-1.002-0.276-0.384-0.19-0.92 0.194-1.197s0.92-0.19 1.197 0.194c1.042 1.446 0.394 2.399 0.006 2.969-0.333 0.491-0.446 0.656 0.012 1.344 0.262 0.394 0.155 0.926-0.24 1.189-0.393 0.261-0.926 0.155-1.188-0.24z"></path> </symbol> <symbol id="icon-open-burger" viewBox="0 0 26 32"> <path d="M13.87 28.527h-2.035c-0.088 0-0.16-0.069-0.163-0.157l-0.388-10.867c-0.003-0.090 0.067-0.166 0.157-0.169 0.091-0.001 0.166 0.067 0.169 0.157l0.382 10.71h1.721l0.047-1.325c0.003-0.090 0.080-0.16 0.169-0.157 0.090 0.003 0.16 0.079 0.157 0.169l-0.053 1.482c-0.003 0.088-0.075 0.157-0.163 0.157z"></path> <path d="M14.011 24.575c-0.002 0-0.004-0-0.006-0-0.090-0.003-0.16-0.079-0.157-0.169l0.246-6.916c0.003-0.090 0.080-0.159 0.169-0.157 0.090 0.003 0.16 0.079 0.157 0.169l-0.246 6.916c-0.003 0.088-0.075 0.157-0.163 0.157z"></path> <path d="M15.498 28.527h-5.292c-0.083 0-0.153-0.063-0.162-0.146l-1.158-10.867c-0.010-0.089 0.055-0.17 0.145-0.179s0.17 0.055 0.179 0.145l1.142 10.722h4.996l0.994-10.72c0.008-0.090 0.088-0.155 0.177-0.147s0.156 0.088 0.147 0.177l-1.008 10.867c-0.008 0.084-0.078 0.148-0.162 0.148z"></path> <path d="M8.528 28.527c-0.079 0-0.149-0.058-0.161-0.139l-1.11-7.41c-0.013-0.089 0.048-0.172 0.137-0.185s0.172 0.048 0.185 0.137l1.11 7.41c0.013 0.089-0.048 0.172-0.137 0.185-0.008 0.001-0.016 0.002-0.024 0.002z"></path> <path d="M18.236 21.117c-0.008 0-0.016-0.001-0.024-0.002-0.089-0.013-0.15-0.096-0.137-0.185l0.518-3.458c0.013-0.089 0.097-0.15 0.185-0.137s0.15 0.096 0.137 0.185l-0.518 3.458c-0.012 0.081-0.082 0.139-0.161 0.139z"></path> <path d="M17.126 28.527c-0.008 0-0.016-0.001-0.024-0.002-0.089-0.013-0.15-0.096-0.137-0.185l0.814-5.434c0.013-0.089 0.097-0.15 0.185-0.137s0.15 0.096 0.137 0.185l-0.814 5.434c-0.012 0.081-0.082 0.139-0.161 0.139z"></path> <path d="M17.277 28.527h-8.85c-0.935 0-1.728-0.632-1.887-1.502l-1.594-7.573c-0.11-0.52 0.020-1.056 0.355-1.469s0.832-0.65 1.364-0.65h12.373c0.532 0 1.029 0.237 1.364 0.65s0.464 0.948 0.355 1.469l-1.595 7.578c-0.158 0.866-0.951 1.497-1.886 1.497zM6.666 17.659c-0.433 0-0.838 0.193-1.111 0.529s-0.378 0.772-0.289 1.196l1.595 7.578c0.131 0.72 0.79 1.239 1.567 1.239h8.85c0.777 0 1.436-0.519 1.566-1.234l1.596-7.582c0.089-0.424-0.016-0.86-0.289-1.196s-0.678-0.529-1.111-0.529h-12.373z"></path> <path d="M19.012 17.659h-11.424c-0.023 0-0.047-0.005-0.068-0.015-1.227-0.562-2.030-1.439-2.321-2.538-0.316-1.192 0.004-2.535 0.9-3.781 1.007-1.4 1.982-1.668 3.111-1.978 0.832-0.228 1.774-0.487 2.951-1.237 0.874-0.557 1.349-1.214 1.375-1.9 0.029-0.783-0.532-1.626-1.623-2.44-0.055-0.041-0.079-0.114-0.058-0.18s0.081-0.112 0.151-0.114c0.081-0.002 0.161-0.003 0.241-0.003 2.155 0 4.254 0.83 5.911 2.337 1.666 1.516 2.673 3.528 2.836 5.667 0.18 2.375-0.427 4.377-1.856 6.122-0.031 0.038-0.077 0.060-0.126 0.060zM7.624 17.333h11.31c1.338-1.662 1.905-3.57 1.734-5.831-0.318-4.171-3.967-7.579-8.19-7.7 0.948 0.799 1.413 1.612 1.383 2.42-0.030 0.798-0.557 1.547-1.525 2.163-1.218 0.777-2.186 1.043-3.040 1.277-1.113 0.305-1.992 0.547-2.932 1.853-0.838 1.165-1.14 2.411-0.85 3.507 0.263 0.991 0.992 1.789 2.109 2.31z"></path> <path d="M10.063 17.659c-0.038 0-0.075-0.013-0.105-0.038-0.926-0.775-1.43-1.668-1.497-2.655-0.151-2.208 1.863-4.426 3.333-6.046 0.253-0.279 0.492-0.542 0.695-0.778 0.165-0.191 0.305-0.398 0.419-0.615 0.041-0.080 0.14-0.111 0.22-0.069s0.111 0.14 0.069 0.22c-0.125 0.24-0.28 0.468-0.461 0.677-0.206 0.24-0.446 0.504-0.701 0.785-1.431 1.576-3.391 3.735-3.249 5.805 0.060 0.878 0.509 1.681 1.335 2.388 1.365-0.020 2.761-0.013 4.112-0.006 0.648 0.003 1.317 0.007 1.974 0.007 0.725-1.666 1.032-3.577 0.938-5.836-0.162-3.907-1.973-7.272-4.122-7.661-0.089-0.016-0.147-0.101-0.131-0.189s0.101-0.147 0.189-0.131c1.122 0.203 2.188 1.129 3.003 2.607 0.812 1.474 1.304 3.377 1.387 5.36 0.098 2.355-0.232 4.343-1.009 6.080-0.026 0.059-0.085 0.096-0.149 0.096-0.692 0-1.398-0.003-2.082-0.007-1.369-0.007-2.785-0.014-4.166 0.007-0.001 0-0.002 0-0.003 0z"></path> <path d="M14.054 17.659c-0.022 0-0.045-0.005-0.066-0.014-0.082-0.037-0.119-0.133-0.082-0.215 0.756-1.686 1.077-3.626 0.981-5.933-0.004-0.090 0.066-0.166 0.156-0.17 0.091-0.004 0.166 0.066 0.17 0.156 0.098 2.358-0.232 4.347-1.009 6.080-0.027 0.061-0.087 0.096-0.149 0.096z"></path> <path d="M21.003 5.542v0c-0.3 0-0.543-0.243-0.543-0.543v0c-0-0.3 0.243-0.543 0.543-0.543v0c0.3-0 0.543 0.243 0.543 0.543v0c0 0.3-0.243 0.543-0.543 0.543z"></path> <path d="M15.026 10.432v0c-0.3 0-0.543-0.243-0.543-0.543v0c-0-0.3 0.243-0.543 0.543-0.543v0c0.3-0 0.543 0.243 0.543 0.543v0c0 0.3-0.243 0.543-0.543 0.543z"></path> <path d="M23.72 21.843v0c-0.3 0-0.543-0.243-0.543-0.543v0c-0-0.3 0.243-0.543 0.543-0.543v0c0.3-0 0.543 0.243 0.543 0.543v0c0 0.3-0.243 0.543-0.543 0.543z"></path> <path d="M22.090 26.19v0c-0.3 0-0.543-0.243-0.543-0.543v0c-0-0.3 0.243-0.543 0.543-0.543v0c0.3-0 0.543 0.243 0.543 0.543v0c0 0.3-0.243 0.543-0.543 0.543z"></path> <path d="M23.72 12.606v0c-0.3 0-0.543-0.243-0.543-0.543v0c-0-0.3 0.243-0.543 0.543-0.543v0c0.3-0 0.543 0.243 0.543 0.543v0c0 0.3-0.243 0.543-0.543 0.543z"></path> <path d="M10.135 6.629v0c-0.3 0-0.543-0.243-0.543-0.543v0c-0-0.3 0.243-0.543 0.543-0.543v0c0.3-0 0.543 0.243 0.543 0.543v0c0 0.3-0.243 0.543-0.543 0.543z"></path> <path d="M3.615 11.519v0c-0.3 0-0.543-0.243-0.543-0.543v0c-0-0.3 0.243-0.543 0.543-0.543v0c0.3-0 0.543 0.243 0.543 0.543v0c0 0.3-0.243 0.543-0.543 0.543z"></path> <path d="M1.984 6.085v0c-0.3 0-0.543-0.243-0.543-0.543v0c-0-0.3 0.243-0.543 0.543-0.543v0c0.3-0 0.543 0.243 0.543 0.543v0c0 0.3-0.243 0.543-0.543 0.543z"></path> <path d="M24.127 8.965c-0.042 0-0.083-0.016-0.115-0.048l-0.951-0.951c-0.064-0.064-0.064-0.167 0-0.23l0.836-0.836-0.836-0.836c-0.064-0.064-0.064-0.167 0-0.23l0.951-0.951c0.064-0.064 0.167-0.064 0.23 0s0.064 0.167 0 0.23l-0.836 0.836 0.836 0.836c0.064 0.064 0.064 0.167 0 0.23l-0.836 0.836 0.836 0.836c0.064 0.064 0.064 0.167 0 0.23-0.032 0.032-0.074 0.048-0.115 0.048z"></path> <path d="M3.071 18.927c-0.013 0-0.026-0.002-0.040-0.005l-1.449-0.362c-0.057-0.014-0.102-0.058-0.118-0.115s0-0.117 0.042-0.159l0.871-0.871-1.513-0.303c-0.088-0.018-0.146-0.104-0.128-0.192s0.104-0.146 0.192-0.128l1.811 0.362c0.059 0.012 0.107 0.055 0.124 0.113s0.002 0.12-0.041 0.163l-0.883 0.883 1.17 0.292c0.087 0.022 0.14 0.11 0.119 0.198-0.018 0.074-0.085 0.124-0.158 0.124z"></path> <path d="M5.788 6.792c-0.689 0-1.25-0.561-1.25-1.25s0.561-1.25 1.25-1.25 1.25 0.561 1.25 1.25-0.561 1.25-1.25 1.25zM5.788 4.618c-0.509 0-0.924 0.414-0.924 0.924s0.414 0.924 0.924 0.924 0.924-0.414 0.924-0.924-0.414-0.924-0.924-0.924z"></path> <path d="M23.667 18.644c-0.139 0-0.275-0.029-0.402-0.087-0.629-0.284-0.835-0.936-1.073-1.691-0.077-0.243-0.156-0.494-0.255-0.755-0.032-0.084 0.011-0.178 0.095-0.21 0.261-0.099 0.501-0.205 0.734-0.308 0.524-0.232 0.976-0.433 1.423-0.433 0.197 0 0.379 0.039 0.555 0.118 0.493 0.222 0.713 0.804 0.491 1.297-0.163 0.362-0.417 0.506-0.744 0.561 0.176 0.282 0.235 0.568 0.072 0.93-0.158 0.351-0.51 0.578-0.895 0.578zM22.298 16.147c0.077 0.215 0.142 0.421 0.205 0.621 0.224 0.709 0.4 1.268 0.896 1.492 0.085 0.039 0.176 0.058 0.268 0.058 0.257 0 0.492-0.152 0.598-0.386 0.127-0.283 0.079-0.484-0.201-0.827-0.039-0.048-0.048-0.114-0.022-0.17s0.080-0.093 0.142-0.096c0.442-0.018 0.625-0.114 0.753-0.397 0.148-0.329 0.001-0.717-0.327-0.866-0.133-0.060-0.271-0.089-0.421-0.089-0.378 0-0.801 0.188-1.291 0.405-0.192 0.085-0.389 0.172-0.6 0.257z"></path> <path d="M2.709 26.265c-0.139 0-0.275-0.029-0.403-0.087-0.361-0.163-0.506-0.416-0.561-0.744-0.154 0.096-0.328 0.167-0.523 0.167-0.131 0-0.264-0.031-0.407-0.096-0.239-0.108-0.422-0.302-0.515-0.547s-0.085-0.512 0.023-0.75c0.284-0.629 0.936-0.835 1.691-1.073 0.243-0.077 0.494-0.156 0.756-0.255 0.041-0.015 0.085-0.014 0.125 0.004s0.070 0.050 0.086 0.091c0.099 0.261 0.205 0.502 0.308 0.734 0.321 0.724 0.598 1.349 0.314 1.978-0.158 0.351-0.509 0.578-0.895 0.578zM1.88 24.971c0.023 0 0.046 0.005 0.067 0.014 0.056 0.025 0.093 0.080 0.096 0.142 0.018 0.442 0.114 0.625 0.397 0.753 0.085 0.039 0.176 0.058 0.269 0.058 0.257 0 0.492-0.151 0.597-0.386 0.224-0.496-0.014-1.033-0.315-1.712-0.085-0.192-0.172-0.389-0.257-0.6-0.215 0.077-0.421 0.142-0.621 0.205-0.709 0.224-1.268 0.4-1.492 0.896-0.072 0.159-0.077 0.337-0.015 0.501s0.184 0.293 0.344 0.365c0.1 0.045 0.189 0.067 0.273 0.067 0.161 0 0.322-0.078 0.555-0.267 0.030-0.024 0.066-0.037 0.103-0.037z"></path> </symbol> </defs> </svg>